<svg width="72" height="54" viewBox="0 0 72 54" fill="none" xmlns="http://www.w3.org/2000/svg">
<g clip-path="url(#clip0_122_651)">
<path d="M47.9997 50V42.5H50.8812C50.9743 42.7196 51.1301 42.9069 51.329 43.0386C51.5279 43.1703 51.7611 43.2405 51.9997 43.2405C52.2382 43.2405 52.4715 43.1703 52.6703 43.0386C52.8692 42.9069 53.025 42.7196 53.1182 42.5H55.9997V49.98L47.9997 50ZM71.9996 20.5V40.5C71.9996 40.8978 71.8416 41.2794 71.5603 41.5607C71.279 41.842 70.8975 42 70.4996 42H33.4997C33.1018 42 32.7203 41.842 32.439 41.5607C32.1577 41.2794 31.9997 40.8978 31.9997 40.5V20.5C31.9997 20.1022 32.1577 19.7206 32.439 19.4393C32.7203 19.158 33.1018 19 33.4997 19H70.4996C70.8975 19 71.279 19.158 71.5603 19.4393C71.8416 19.7206 71.9996 20.1022 71.9996 20.5ZM69.9996 21H33.9997V40H69.9996V21ZM30.9997 40.1738C31.0006 40.4512 31.0278 40.7278 31.081 41H1.52855C1.47855 40.9972 1.42765 40.9919 1.37765 40.9843C1.1674 40.9527 0.965449 40.8799 0.783326 40.7702C0.601202 40.6605 0.44248 40.516 0.316228 40.3449C0.189976 40.1739 0.0986692 39.9796 0.0475239 39.7732C-0.00362135 39.5669 -0.0136024 39.3524 0.0181512 39.1422V15.7087C-0.0109665 15.4918 0.00745831 15.2712 0.0721469 15.0622C0.136835 14.8532 0.246238 14.6607 0.392761 14.4982C0.539285 14.3357 0.719419 14.207 0.920661 14.1211C1.1219 14.0351 1.33943 13.994 1.55815 14.0006H44.5697C45.5397 14.0006 45.9997 14.7598 45.9997 15.7087V18H43.9997V16H1.99965V39H30.9997V40.1738ZM16.9997 50H28.9997V41.5H16.9997V50Z" fill="#1D1D1F"/>
</g>
<defs>
<clipPath id="clip0_122_651">
<rect width="72" height="54" fill="white"/>
</clipPath>
</defs>
</svg>
