<svg width="52" height="54" viewBox="0 0 52 54" fill="none" xmlns="http://www.w3.org/2000/svg">
<g clip-path="url(#clip0_187_275)">
<path d="M47 48V23.5C47.0004 23.3029 46.9618 23.1077 46.8865 22.9256C46.8113 22.7434 46.7008 22.5779 46.5615 22.4385C46.4221 22.2992 46.2566 22.1887 46.0744 22.1135C45.8923 22.0382 45.6971 21.9996 45.5 22H6.5C6.30292 21.9996 6.1077 22.0382 5.92555 22.1135C5.74341 22.1887 5.57791 22.2992 5.43855 22.4385C5.29919 22.5779 5.18871 22.7434 5.11346 22.9256C5.0382 23.1077 4.99964 23.3029 5 23.5V48H0C0 48.1 0 48.2026 0.2 48.3486C1.60762 49.1574 3.18047 49.6361 4.8 49.7486C7.4 49.9486 12.5 49.9999 12.5 49.9999H39.5C39.5 49.9999 44.6 49.9486 47.2 49.7486C48.8195 49.6361 50.3924 49.1574 51.8 48.3486C52 48.2026 52 48.1 52 48H47ZM7 48L7.01 24H45V48H7Z" fill="#1D1D1F"/>
</g>
<defs>
<clipPath id="clip0_187_275">
<rect width="52" height="54" fill="white"/>
</clipPath>
</defs>
</svg>
