<svg width="28" height="54" viewBox="0 0 28 54" fill="none" xmlns="http://www.w3.org/2000/svg">
<g clip-path="url(#clip0_122_634)">
<path d="M-0.000413076 43V49C-0.0102582 49.1338 0.00885658 49.2682 0.0556295 49.394C0.102402 49.5198 0.175735 49.6341 0.270633 49.729C0.365531 49.8239 0.479765 49.8972 0.605557 49.944C0.731348 49.9907 0.865743 50.0098 0.999587 50H26.9996C27.1334 50.0098 27.2678 49.9907 27.3936 49.944C27.5194 49.8972 27.6336 49.8239 27.7285 49.729C27.8234 49.6341 27.8968 49.5198 27.9435 49.394C27.9903 49.2682 28.0094 49.1338 27.9996 49V43H-0.000413076ZM23.4996 48.454C23.3164 48.4471 23.1393 48.3865 22.9904 48.2797C22.8414 48.1729 22.7272 48.0246 22.6619 47.8534C22.5966 47.6821 22.5831 47.4954 22.6232 47.3165C22.6632 47.1377 22.755 46.9746 22.8871 46.8475C23.0192 46.7204 23.1858 46.635 23.3661 46.602C23.5464 46.5689 23.7324 46.5896 23.901 46.6615C24.0696 46.7334 24.2133 46.8534 24.3143 47.0064C24.4152 47.1594 24.4688 47.3387 24.4686 47.522C24.4664 47.6469 24.4395 47.7701 24.3896 47.8846C24.3397 47.9991 24.2676 48.1026 24.1776 48.1892C24.0876 48.2758 23.9813 48.3437 23.865 48.3892C23.7486 48.4346 23.6245 48.4567 23.4996 48.454Z" fill="#1D1D1F"/>
</g>
<defs>
<clipPath id="clip0_122_634">
<rect width="28" height="54" fill="white"/>
</clipPath>
</defs>
</svg>
