<svg width="85" height="54" viewBox="0 0 85 54" fill="none" xmlns="http://www.w3.org/2000/svg">
<g clip-path="url(#clip0_122_646)">
<path d="M47.6007 17.5H31.7782V17.5148C31.7782 17.6457 31.7524 17.7753 31.7023 17.8962C31.6522 18.0171 31.5788 18.127 31.4863 18.2195C31.3937 18.3121 31.2838 18.3855 31.1629 18.4356C31.042 18.4856 30.9124 18.5114 30.7815 18.5114H27.2185C27.0876 18.5114 26.958 18.4856 26.8371 18.4356C26.7162 18.3855 26.6063 18.3121 26.5137 18.2195C26.4212 18.127 26.3478 18.0171 26.2977 17.8962C26.2476 17.7753 26.2218 17.6457 26.2218 17.5148V17.5H10.3993L9.074 17.5012C8.5719 17.5021 8.2477 17.5033 8.0027 17.5055C7.7736 17.5076 7.6171 17.5104 7.491 17.5144C7.34417 17.5172 7.1976 17.5279 7.0519 17.5463C6.96801 17.5544 6.88595 17.5759 6.8088 17.6098C6.7658 17.6302 6.7266 17.6578 6.6929 17.6914C6.65796 17.7262 6.62931 17.7668 6.6082 17.8114C6.57488 17.8876 6.55382 17.9686 6.5458 18.0514C6.52753 18.1968 6.51698 18.3431 6.5142 18.4896C6.5104 18.6128 6.5076 18.7696 6.5056 18.9991C6.5037 19.2425 6.5024 19.5241 6.5015 20.0275C6.5005 20.7626 6.5 47.4975 6.5 47.4975H32V48.4795C32.0021 49.0292 32.1857 49.5629 32.5223 49.9975H7.2891L7.0376 50.5H4.0029L3.7515 49.9972H1.5179C1.11533 49.9972 0.729259 49.8372 0.444606 49.5525C0.159953 49.2679 2.65147e-05 48.8818 0 48.4792L0 47.4972H5C5 47.4972 5 20.7606 5.0015 20.0244C5.0024 19.5169 5.0037 19.2327 5.0056 18.9855C5.0078 18.7416 5.0109 18.5746 5.015 18.4402C5.01942 18.24 5.03461 18.0401 5.0605 17.8415C5.08981 17.6054 5.15606 17.3754 5.2568 17.1599C5.4465 16.7647 5.76547 16.4462 6.1609 16.257C6.3764 16.1564 6.60637 16.0902 6.8424 16.061C7.04142 16.0349 7.24172 16.0196 7.4424 16.0152C7.5773 16.0108 7.7445 16.0077 7.9889 16.0052C8.2365 16.0029 8.564 16.0017 9.0714 16.0008C9.4141 16.0003 9.822 15.9998 10.3986 15.9996H47.6013C48.1779 15.9996 48.5858 16.0003 48.9285 16.0008C49.4359 16.0017 49.7634 16.0029 50.011 16.0052C50.2554 16.0073 50.4226 16.0104 50.5575 16.0152C50.7582 16.0196 50.9585 16.0349 51.1575 16.061C51.3935 16.0902 51.6235 16.1564 51.839 16.257C52.2344 16.4462 52.5534 16.7647 52.7431 17.1599C52.8438 17.3754 52.9101 17.6054 52.9394 17.8415C52.9653 18.0401 52.9805 18.24 52.9849 18.4402C52.989 18.5746 52.9921 18.7416 52.9943 18.9855V18.9999H51.4943V18.9973C51.4923 18.7698 51.4895 18.6127 51.4856 18.4864C51.4828 18.3405 51.4722 18.1949 51.4539 18.0501C51.4458 17.9669 51.4245 17.8854 51.3908 17.8089C51.3489 17.7216 51.2783 17.6514 51.1908 17.6098C51.1136 17.5759 51.0314 17.5545 50.9475 17.5463C50.8017 17.5279 50.6551 17.5172 50.5082 17.5144C50.3824 17.5104 50.2259 17.5076 49.9973 17.5055C49.7518 17.5033 49.4273 17.5021 48.9254 17.5012L47.6007 17.5ZM85 47.4971V48.4791C85 48.8817 84.84 49.2678 84.5553 49.5525C84.2706 49.8372 83.8845 49.9971 83.4819 49.9971H81.2485L80.9971 50.5H77.9624L77.7109 49.9971H40.2891L40.0376 50.5H37.0029L36.7515 49.9971H34.5179C34.1153 49.9971 33.7293 49.8371 33.4446 49.5524C33.16 49.2678 33 48.8817 33 48.4791V47.4971H38C38 47.4971 38.0005 24.8035 38.0015 24.0671C38.0024 23.5596 38.0037 23.2323 38.0056 22.9852C38.0078 22.7413 38.0109 22.5742 38.015 22.4398C38.0194 22.2396 38.0346 22.0398 38.0605 21.8412C38.0898 21.6051 38.156 21.375 38.2568 21.1595C38.4465 20.7644 38.7655 20.4459 39.1609 20.2567C39.3764 20.1561 39.6064 20.0899 39.8424 20.0607C40.0414 20.0345 40.2417 20.0192 40.4424 20.0148C40.5773 20.0105 40.7445 20.0074 40.9889 20.0053C41.2365 20.003 41.564 20.0017 42.0714 20.0009C42.4142 20.0006 43.3987 20 43.3987 20H74.6013C75.178 20 75.5857 20.0006 75.9285 20.0012C76.4358 20.002 76.7634 20.0033 77.011 20.0056C77.2554 20.0077 77.4226 20.0108 77.5574 20.0151C77.7581 20.0195 77.9584 20.0348 78.1574 20.061C78.3935 20.0902 78.6235 20.1563 78.839 20.257C79.2345 20.446 79.5535 20.7646 79.7431 21.1598C79.8437 21.3754 79.91 21.6054 79.9394 21.8415C79.9653 22.0401 79.9804 22.2399 79.9848 22.4401C79.9892 22.5745 79.9921 22.7416 79.9948 22.9855C79.9967 23.2326 79.998 23.5599 79.9989 24.0674C79.9999 24.8035 80.0004 47.4974 80.0004 47.4974L85 47.4971ZM78.5 47.4971C78.5 47.4971 78.5 24.8055 78.4985 24.0694C78.4976 23.567 78.4963 23.2424 78.4944 22.9974C78.4924 22.771 78.4897 22.6148 78.4856 22.4893C78.4828 22.3422 78.4722 22.1953 78.4539 22.0493C78.4457 21.9662 78.4243 21.8849 78.3906 21.8085C78.3697 21.7655 78.3419 21.7262 78.3081 21.6924C78.2742 21.6587 78.2349 21.6309 78.1917 21.6103C78.1144 21.5763 78.0321 21.5548 77.948 21.5466C77.8022 21.5281 77.6555 21.5174 77.5085 21.5146C77.3828 21.5106 77.2263 21.5078 76.9978 21.5058C76.7522 21.5035 76.4278 21.5023 75.9258 21.5015L74.6006 21.5H61.7782V21.5147C61.7782 21.779 61.6732 22.0326 61.4863 22.2195C61.2994 22.4064 61.0458 22.5114 60.7815 22.5114H57.2185C56.9542 22.5114 56.7006 22.4064 56.5137 22.2195C56.3268 22.0326 56.2218 21.779 56.2218 21.5147V21.5H52.4989H43.3989L42.0736 21.5012C41.5715 21.502 41.2473 21.5032 41.0023 21.5055C40.7732 21.5075 40.6167 21.5103 40.4904 21.5143C40.3437 21.5172 40.1972 21.5278 40.0516 21.5463C39.9677 21.5544 39.8856 21.5758 39.8084 21.6098C39.7654 21.6302 39.7262 21.6578 39.6925 21.6913C39.6576 21.7262 39.629 21.7668 39.6078 21.8113C39.5745 21.8875 39.5534 21.9685 39.5454 22.0513C39.5271 22.1967 39.5166 22.343 39.5138 22.4895C39.51 22.6128 39.5072 22.7695 39.5052 22.999C39.5033 23.2425 39.502 23.5671 39.5011 24.0704C39.5001 24.8056 39.4996 47.4972 39.4996 47.4972L78.5 47.4971Z" fill="#1D1D1F"/>
</g>
<defs>
<clipPath id="clip0_122_646">
<rect width="85" height="54" fill="white"/>
</clipPath>
</defs>
</svg>
