<svg width="22" height="35" viewBox="0 0 22 35" fill="none" xmlns="http://www.w3.org/2000/svg">
<path d="M10.7826 33L11.6522 31.3733L13.0652 29.3392L15.1304 27.5759L17.8478 25.4065L19.913 21.881L20.3478 20.797L14.587 17.4069L16.3261 16.8642L21 15.3728L20.1304 13.3388L18.8261 11.5767L16.5435 9.94872L14.6957 9.40731L12.9565 9.13535L10.7826 9H8.93478L6.43478 9.40731L3.93478 10.6267L2.41304 12.1181L1.21739 14.8302L1 17.2715L1.21739 19.847L1.97826 22.5591L3.5 24.7285L5.34783 26.4918L6.97826 27.8478L8.71739 29.3392L9.85652 30.8156L10.7826 33Z" fill="white" stroke="white" stroke-miterlimit="10"/>
<line x1="12.666" y1="10.9128" x2="15.3681" y2="0.828264" stroke="white"/>
<line x1="9.88427" y1="10.3789" x2="7.51561" y2="1.12397" stroke="white"/>
<line x1="11.5" y1="10" x2="11.5" y2="-7.07109e-10" stroke="white"/>
</svg>
