<svg width="17" height="17" viewBox="0 0 17 17" fill="none" xmlns="http://www.w3.org/2000/svg">
<path d="M6.73562 0C3.01957 0 0 2.9508 0 6.58221C0 10.2136 3.01957 13.1644 6.73562 13.1644C8.20594 13.1644 9.56482 12.7016 10.673 11.9181L15.8857 17L17 15.911L11.8492 10.8655C12.8614 9.71299 13.4712 8.21717 13.4712 6.58221C13.4712 2.9508 10.4517 0 6.73562 0ZM6.73562 0.774377C10.0229 0.774377 12.6788 3.36975 12.6788 6.58221C12.6788 9.79466 10.0229 12.39 6.73562 12.39C3.44829 12.39 0.792425 9.79466 0.792425 6.58221C0.792425 3.36975 3.44829 0.774377 6.73562 0.774377Z" fill="#F2F2F2"/>
</svg>
