<svg width="23" height="33" viewBox="0 0 23 33" fill="none" xmlns="http://www.w3.org/2000/svg">
<path fill-rule="evenodd" clip-rule="evenodd" d="M2.30049 0C1.03019 0 0.000488281 1.0308 0.000488281 2.3023V30.6976C0.000488281 31.9692 1.03019 33 2.30049 33H20.7005C21.9708 33 23.0005 31.9692 23.0005 30.6977V2.3023C23.0005 1.0308 21.9708 0 20.7005 0H2.30049ZM21.0005 30.2564C21.0005 30.6671 20.6733 31 20.2697 31H2.73129C2.32769 31 2.00049 30.6671 2.00049 30.2564V2.7436C2.00049 2.3329 2.32769 2 2.73129 2H20.2698C20.6733 2 21.0005 2.3329 21.0005 2.7436V30.2564Z" fill="#F5F5F7"/>
</svg>
