<svg width="33" height="33" viewBox="0 0 33 33" fill="none" xmlns="http://www.w3.org/2000/svg">
<path d="M13.6452 8.70045C13.6591 8.54247 13.6369 8.3834 13.5804 8.23522C13.5239 8.08704 13.4345 7.95359 13.319 7.84492C13.2035 7.73626 13.0649 7.65519 12.9135 7.60782C12.7622 7.56045 12.6021 7.54802 12.4452 7.57145H11.3452V9.80945H12.4452C12.6002 9.83199 12.7583 9.81961 12.9079 9.77321C13.0575 9.7268 13.1948 9.64755 13.3098 9.54125C13.4248 9.43495 13.5146 9.30429 13.5727 9.15881C13.6307 9.01334 13.6555 8.85673 13.6452 8.70045Z" fill="#F5F5F7"/>
<path d="M21.7273 11.8225C22.4343 11.8225 22.8723 11.2635 22.8723 10.3495C22.8723 9.43545 22.4313 8.87045 21.7273 8.87045C21.0233 8.87045 20.5903 9.42945 20.5903 10.3475C20.5903 11.2655 21.0133 11.8225 21.7273 11.8225Z" fill="#F5F5F7"/>
<path d="M10.9503 15.9535C8.57425 15.9535 7.08325 17.7535 7.08325 20.6265C7.08325 23.4995 8.57425 25.2905 10.9503 25.2905C13.3263 25.2905 14.8173 23.4905 14.8173 20.6265C14.8173 17.7625 13.3273 15.9535 10.9503 15.9535Z" fill="#F5F5F7"/>
<path d="M31.3802 5.25546C30.9919 4.33546 30.4051 3.51266 29.6617 2.84588C28.9184 2.17911 28.0368 1.68485 27.0802 1.39846C25.8165 1.08286 24.5149 0.945865 23.2132 0.991456H8.81321C7.51153 0.945865 6.20988 1.08286 4.94621 1.39846C3.98958 1.68485 3.10806 2.17911 2.3647 2.84588C1.62134 3.51266 1.03452 4.33546 0.646214 5.25546C0.158438 6.71575 -0.0561426 8.25341 0.0132141 9.79145V24.1915C-0.0560739 25.7295 0.158505 27.2671 0.646214 28.7275C1.03452 29.6474 1.62134 30.4703 2.3647 31.137C3.10806 31.8038 3.98958 32.2981 4.94621 32.5845C6.20988 32.9001 7.51153 33.0371 8.81321 32.9915H23.2132C24.5149 33.0371 25.8166 32.9001 27.0802 32.5845C28.0368 32.2981 28.9184 31.8038 29.6617 31.137C30.4051 30.4703 30.9919 29.6474 31.3802 28.7275C31.868 27.2672 32.0826 25.7295 32.0132 24.1915V9.79145C32.0826 8.25341 31.868 6.71575 31.3802 5.25546ZM21.4892 8.15546C21.7541 8.14501 22.0166 8.20946 22.2465 8.34141C22.4765 8.47337 22.6646 8.66747 22.7892 8.90146H22.8512V6.56446H23.6912V12.4705H22.8912V11.7985H22.8252C22.6914 12.0322 22.4961 12.2249 22.2606 12.3557C22.0252 12.4865 21.7584 12.5504 21.4892 12.5405C20.4072 12.5405 19.7232 11.6885 19.7232 10.3405C19.7232 8.99246 20.4132 8.15546 21.4892 8.15546ZM10.4732 6.83346H12.6802C12.9274 6.8299 13.1727 6.87573 13.4019 6.96828C13.6311 7.06082 13.8395 7.19821 14.0148 7.37238C14.1902 7.54655 14.329 7.75399 14.4231 7.98253C14.5172 8.21107 14.5648 8.45611 14.5629 8.70327C14.561 8.95042 14.5098 9.19471 14.4123 9.42181C14.3147 9.64891 14.1728 9.85423 13.9948 10.0257C13.8168 10.1972 13.6064 10.3315 13.3758 10.4205C13.1453 10.5096 12.8993 10.5517 12.6522 10.5445H11.3522V12.4705H10.4732V6.83346ZM8.72321 6.41146C8.82767 6.41185 8.92967 6.44316 9.01636 6.50144C9.10304 6.55972 9.17054 6.64236 9.21033 6.73894C9.25012 6.83552 9.26042 6.94172 9.23995 7.04415C9.21947 7.14658 9.16913 7.24065 9.09527 7.31451C9.02141 7.38837 8.92733 7.43871 8.8249 7.45919C8.72248 7.47966 8.61628 7.46936 8.5197 7.42957C8.42312 7.38978 8.34048 7.32228 8.2822 7.2356C8.22392 7.14891 8.19261 7.04691 8.19221 6.94246C8.19221 6.80163 8.24816 6.66656 8.34774 6.56698C8.44732 6.4674 8.58238 6.41146 8.72321 6.41146ZM9.14121 8.22846V12.4705H8.30521V8.22846H9.14121ZM10.9502 26.6285C7.65521 26.6285 5.59321 24.3165 5.59321 20.6285C5.59321 16.9405 7.65521 14.6175 10.9502 14.6175C14.2452 14.6175 16.3082 16.9375 16.3082 20.6285C16.3082 24.3195 14.2462 26.6285 10.9502 26.6285ZM15.1692 11.2705C15.1692 10.5085 15.7392 10.0705 16.7512 10.0045L17.9032 9.93446V9.57046C17.9032 9.10546 17.6032 8.84345 17.0322 8.84345C16.5632 8.84345 16.2392 9.01946 16.1452 9.32746H15.3332C15.4192 8.61246 16.1062 8.14746 17.0712 8.14746C18.1372 8.14746 18.7392 8.67846 18.7392 9.56946V12.4695H17.9302V11.8695H17.8642C17.7304 12.0849 17.5415 12.2608 17.317 12.3789C17.0925 12.497 16.8406 12.5531 16.5872 12.5415C16.4087 12.5608 16.228 12.5424 16.0571 12.4874C15.8861 12.4323 15.7286 12.3419 15.5949 12.2221C15.4611 12.1022 15.3541 11.9555 15.2808 11.7916C15.2074 11.6276 15.1694 11.4501 15.1692 11.2705ZM21.7002 26.6235C19.1622 26.6235 17.4712 25.3235 17.3342 23.3115H18.7832C18.9532 24.5605 20.1132 25.3185 21.7832 25.3185C23.3612 25.3185 24.5062 24.4885 24.5062 23.3435C24.5062 22.3685 23.8612 21.7245 22.2502 21.3695L20.9612 21.0875C18.6332 20.5795 17.6252 19.5255 17.6252 17.8725C17.6252 15.9555 19.3172 14.6095 21.7252 14.6095C24.0452 14.6095 25.7252 15.9955 25.7862 17.9695H24.3362C24.2983 17.6599 24.1995 17.361 24.0455 17.0898C23.8915 16.8187 23.6853 16.5807 23.4388 16.3897C23.1924 16.1986 22.9105 16.0583 22.6095 15.9767C22.3086 15.8951 21.9944 15.874 21.6852 15.9145C20.2362 15.9145 19.1162 16.6235 19.1162 17.8075C19.1162 18.7265 19.7362 19.3545 21.3232 19.7015L22.6122 19.9835C25.0372 20.5145 25.9962 21.4835 25.9962 23.1265C25.9942 25.2825 24.3022 26.6285 21.7002 26.6285V26.6235Z" fill="#F5F5F7"/>
<path d="M17.9032 10.5365L16.8642 10.6065C16.2782 10.6455 16.0122 10.8525 16.0122 11.2395C16.0122 11.6265 16.3442 11.8645 16.8012 11.8645C16.9371 11.8763 17.074 11.8606 17.2036 11.8183C17.3333 11.776 17.4531 11.7079 17.5558 11.6182C17.6586 11.5284 17.7421 11.4189 17.8014 11.2961C17.8608 11.1732 17.8947 11.0397 17.9012 10.9035L17.9032 10.5365Z" fill="#F5F5F7"/>
</svg>
