<svg width="50" height="43" viewBox="0 0 50 43" fill="none" xmlns="http://www.w3.org/2000/svg">
<path d="M19.0005 38.9998H2.00002V3.99976H19.0005C18.8899 2.49056 19.2031 0.962756 20.3831 -0.000244141H1.36012C0.585218 0.0771559 -0.00378172 0.731056 1.82827e-05 1.50976V41.6799C0.0110183 42.4198 0.619918 43.0108 1.35992 42.9999H20.3828C19.2025 42.0363 18.8901 40.5088 19.0005 38.9998ZM15 1.41986C15.8633 1.42366 15.8632 2.73616 15 2.73986C14.1371 2.73606 14.1371 1.42346 15 1.41986ZM15 41.9399V41.9499C13.5938 41.926 13.594 39.8336 15 39.8099C16.405 39.8345 16.4047 41.9156 15 41.9399ZM47.0005 -0.000144005H23.0005C21.3436 -0.000144005 20.0005 1.34296 20.0005 2.99986V39.9999C20.0005 41.6563 21.343 42.999 22.9993 42.9998H47.0005C48.6574 42.9999 50.0005 41.6568 50.0005 39.9999V2.99986C50.0005 1.34296 48.6574 -0.000144005 47.0005 -0.000144005ZM48.0005 39.9999C48.0005 40.5521 47.5527 40.9999 47.0005 40.9999C42.1067 40.9995 27.6618 41.0002 23.0005 40.9999C22.4483 40.9999 22.0005 40.5521 22.0005 39.9999V2.99986C22.0005 2.44756 22.4483 1.99986 23.0005 1.99986C27.59 1.99876 42.1855 2.00066 47.0005 1.99986C47.5527 1.99986 48.0005 2.44756 48.0005 2.99986V39.9999Z" fill="#F5F5F7"/>
</svg>
