<svg width="30" height="43" viewBox="0 0 30 43" fill="none" xmlns="http://www.w3.org/2000/svg">
<path d="M27 0C27.7956 0 28.5587 0.31607 29.1213 0.878679C29.6839 1.44129 30 2.20435 30 3V40C30 40.7957 29.6839 41.5587 29.1213 42.1213C28.5587 42.6839 27.7956 43 27 43H3C2.20435 43 1.44129 42.6839 0.87868 42.1213C0.31607 41.5587 0 40.7957 0 40L0 3C0 2.20435 0.31607 1.44129 0.87868 0.878679C1.44129 0.31607 2.20435 0 3 0H27ZM28 3C28.0088 2.86639 27.989 2.73244 27.9419 2.6071C27.8948 2.48177 27.8214 2.36795 27.7267 2.27327C27.632 2.17859 27.5182 2.10523 27.3929 2.0581C27.2676 2.01097 27.1336 1.99116 27 2H3C2.86639 1.99116 2.73244 2.01097 2.6071 2.0581C2.48177 2.10523 2.36795 2.17859 2.27327 2.27327C2.17859 2.36795 2.10523 2.48177 2.0581 2.6071C2.01097 2.73244 1.99116 2.86639 2 3V40C1.99116 40.1336 2.01097 40.2676 2.0581 40.3929C2.10523 40.5182 2.17859 40.632 2.27327 40.7267C2.36795 40.8214 2.48177 40.8948 2.6071 40.9419C2.73244 40.989 2.86639 41.0088 3 41H27C27.1336 41.0088 27.2676 40.989 27.3929 40.9419C27.5182 40.8948 27.632 40.8214 27.7267 40.7267C27.8214 40.632 27.8948 40.5182 27.9419 40.3929C27.989 40.2676 28.0088 40.1336 28 40V3Z" fill="#F5F5F7"/>
</svg>
