<svg width="45" height="54" viewBox="0 0 45 54" fill="none" xmlns="http://www.w3.org/2000/svg">
<g clip-path="url(#clip0_102_981)">
<path d="M14.5005 13H5.50049C4.04233 13.0017 2.6444 13.5818 1.61333 14.6128C0.582258 15.6439 0.00223492 17.0418 0.000488281 18.5L0.000488281 44.5C0.00231414 45.9581 0.582363 47.356 1.61342 48.3871C2.64447 49.4181 4.04236 49.9982 5.50049 50H14.5005C15.9586 49.9982 17.3565 49.4181 18.3876 48.3871C19.4186 47.356 19.9987 45.9581 20.0005 44.5V18.5C19.9987 17.0418 19.4187 15.6439 18.3876 14.6128C17.3566 13.5818 15.9586 13.0017 14.5005 13ZM18.0005 44.5C17.9994 45.4279 17.6303 46.3175 16.9741 46.9736C16.318 47.6298 15.4284 47.9989 14.5005 48H5.50049C4.57257 47.9989 3.68298 47.6298 3.02684 46.9736C2.37071 46.3175 2.0016 45.4279 2.00049 44.5V18.5C2.0016 17.5721 2.37071 16.6825 3.02684 16.0264C3.68298 15.3702 4.57257 15.0011 5.50049 15H14.5005C15.4284 15.0011 16.318 15.3702 16.9741 16.0264C17.6303 16.6825 17.9994 17.5721 18.0005 18.5V44.5ZM44.0005 36.5H45.0005V42.5H44.0005V36.5ZM32.0005 13H38.0005V14H32.0005V13ZM44.0005 28.5H45.0005V34.5H44.0005V28.5ZM32.0005 49H38.0005V50H32.0005V49ZM26.0005 34.5H25.0005V28.5H26.0005V34.5ZM26.0005 26.5H25.0005V20.5H26.0005V26.5ZM26.0005 42.5H25.0005V36.5H26.0005V42.5ZM40.0005 14.05V13.0253C41.366 13.1512 42.6354 13.7822 43.5602 14.7948C44.485 15.8074 44.9986 17.1287 45.0005 18.5H44.0005C43.9984 17.396 43.5892 16.3315 42.8511 15.5104C42.1131 14.6893 41.0981 14.1693 40.0005 14.05ZM44.0005 44.5H45.0005C44.9986 45.8713 44.485 47.1926 43.5602 48.2052C42.6354 49.2178 41.366 49.8488 40.0005 49.9747V48.95C41.0981 48.8307 42.1131 48.3107 42.8511 47.4896C43.5892 46.6685 43.9984 45.604 44.0005 44.5ZM30.0005 13.0253V14.05C28.9029 14.1693 27.8879 14.6893 27.1499 15.5104C26.4118 16.3315 26.0026 17.396 26.0005 18.5H25.0005C25.0024 17.1287 25.516 15.8074 26.4408 14.7948C27.3656 13.7822 28.635 13.1512 30.0005 13.0253ZM30.0005 48.95V49.9751C28.6349 49.8492 27.3654 49.2181 26.4406 48.2054C25.5159 47.1928 25.0023 45.8714 25.0005 44.5H26.0005C26.0026 45.604 26.4118 46.6685 27.1499 47.4896C27.8879 48.3107 28.9029 48.8307 30.0005 48.95ZM44.0005 20.5H45.0005V26.5H44.0005V20.5Z" fill="#F5F5F7"/>
</g>
<defs>
<clipPath id="clip0_102_981">
<rect width="45" height="54" fill="white" transform="translate(0.000488281)"/>
</clipPath>
</defs>
</svg>
