<svg width="62" height="48" viewBox="0 0 62 48" fill="none" xmlns="http://www.w3.org/2000/svg">
<path d="M61.5976 46.4878H14.0976C14.0313 46.4878 13.9677 46.5142 13.9208 46.561C13.8739 46.6079 13.8476 46.6715 13.8476 46.7378V47.1178C12.8946 47.1621 11.9539 47.351 11.0576 47.6778C10.5276 47.8078 10.1476 47.6778 9.9576 47.4478C9.85544 47.2609 9.8087 47.0487 9.82287 46.8362C9.83704 46.6236 9.91153 46.4195 10.0376 46.2478C10.5345 45.4822 10.9724 44.6799 11.3476 43.8478L11.7376 43.9878C11.7699 43.995 11.8033 43.9955 11.8358 43.9892C11.8683 43.9829 11.8991 43.97 11.9263 43.9512C11.9535 43.9324 11.9766 43.9082 11.994 43.8801C12.0115 43.852 12.0229 43.8206 12.0276 43.7878L17.0276 29.9678L24.6776 43.1178C24.711 43.1746 24.7654 43.2159 24.8291 43.2327C24.8928 43.2496 24.9605 43.2406 25.0176 43.2078L25.8876 42.7078C25.9444 42.6744 25.9856 42.62 26.0025 42.5563C26.0194 42.4927 26.0104 42.4249 25.9776 42.3678L1.7276 0.37782C1.69554 0.330491 1.64878 0.295045 1.59455 0.276968C1.54032 0.258892 1.48164 0.259191 1.4276 0.27782L0.557601 0.77782L0.427601 0.84782L0.127601 1.01782C0.0984715 1.03335 0.0728577 1.05471 0.0523611 1.08059C0.0318645 1.10646 0.0169259 1.13629 0.00847905 1.1682C3.22135e-05 1.20011 -0.00174122 1.23342 0.00326966 1.26605C0.00828054 1.29867 0.019968 1.32991 0.0376013 1.35782L15.8976 28.8278L10.6476 43.3278C10.6277 43.3902 10.6321 43.4579 10.6599 43.5172C10.6877 43.5766 10.7369 43.6232 10.7976 43.6478L11.1076 43.7578C10.743 44.5766 10.315 45.3657 9.8276 46.1178C9.67285 46.3324 9.58304 46.5869 9.56885 46.8511C9.55467 47.1152 9.61672 47.3779 9.7476 47.6078C9.84773 47.7386 9.97863 47.8427 10.1287 47.9107C10.2787 47.9788 10.4432 48.0087 10.6076 47.9978C10.7864 47.9954 10.9643 47.972 11.1376 47.9278C12.0084 47.61 12.9219 47.4246 13.8476 47.3778V47.7478C13.8476 47.8141 13.8739 47.8777 13.9208 47.9246C13.9677 47.9715 14.0313 47.9978 14.0976 47.9978H61.5976C61.6639 47.9978 61.7275 47.9715 61.7744 47.9246C61.8213 47.8777 61.8476 47.8141 61.8476 47.7478V46.7478C61.8489 46.7142 61.8435 46.6806 61.8315 46.6491C61.8196 46.6176 61.8014 46.5888 61.778 46.5645C61.7547 46.5403 61.7266 46.5209 61.6956 46.5078C61.6646 46.4946 61.6313 46.4878 61.5976 46.4878Z" fill="#F5F5F7"/>
</svg>
