<svg width="79" height="55" viewBox="0 0 79 55" fill="none" xmlns="http://www.w3.org/2000/svg">
<path d="M25.7045 11.2252C25.7045 11.5909 25.6024 11.9567 25.3778 12.2767C19.0282 21.4894 19.0282 33.3996 25.3778 42.6123C25.8882 43.3667 25.7657 44.4412 25.1124 45.0127C24.4386 45.5842 23.4791 45.447 22.9687 44.7155C15.7207 34.2226 15.7207 20.6665 22.9687 10.1965C23.4791 9.44207 24.4386 9.3049 25.1124 9.89927C25.5003 10.1965 25.7045 10.6994 25.7045 11.2252Z" fill="black"/>
<path d="M18.5995 4.57225C18.5995 4.93801 18.4974 5.30379 18.2729 5.62384C9.1262 18.8828 9.1262 36.0051 18.2729 49.2412C18.7833 49.9956 18.6608 51.07 18.0074 51.6416C17.3337 52.2131 16.3741 52.0759 15.8637 51.3444C5.83907 36.8281 5.83907 18.0598 15.8637 3.52066C16.3741 2.76627 17.3337 2.62913 18.0074 3.2235C18.3954 3.54354 18.5995 4.06932 18.5995 4.57225Z" fill="black"/>
<path d="M53.2955 43.6401C53.2955 43.2743 53.3976 42.9086 53.6222 42.5885C59.9718 33.3758 59.9718 21.4656 53.6222 12.2529C53.1118 11.4985 53.2343 10.4241 53.8876 9.85257C54.5614 9.28107 55.5209 9.41824 56.0313 10.1498C63.2793 20.6426 63.2793 34.1988 56.0313 44.6688C55.5209 45.4232 54.5614 45.5603 53.8876 44.966C53.4997 44.6688 53.2955 44.1659 53.2955 43.6401Z" fill="black"/>
<path d="M60.4005 50.293C60.4005 49.9272 60.5026 49.5614 60.7271 49.2414C69.8738 35.9824 69.8738 18.8601 60.7271 5.62402C60.2167 4.86963 60.3392 3.79519 60.9926 3.22368C61.6663 2.65217 62.6259 2.78931 63.1363 3.52084C73.1609 18.0371 73.1609 36.8054 63.1363 51.3446C62.6259 52.099 61.6663 52.2361 60.9926 51.6417C60.6046 51.3217 60.4005 50.7959 60.4005 50.293Z" fill="black"/>
<path d="M28.0854 31.3153V30.0114L33.8382 20.9091H34.7843V22.929H34.1451L29.7985 29.8068V29.9091H37.5456V31.3153H28.0854ZM34.2473 34V30.919V30.3118V20.9091H35.7559V34H34.2473ZM49.12 25C48.9794 24.5696 48.794 24.1839 48.5639 23.843C48.3381 23.4979 48.0675 23.2038 47.7521 22.9609C47.4411 22.718 47.0874 22.5327 46.6911 22.4048C46.2947 22.277 45.8601 22.2131 45.3871 22.2131C44.6115 22.2131 43.9063 22.4134 43.2713 22.8139C42.6364 23.2145 42.1314 23.8047 41.7564 24.5845C41.3814 25.3643 41.1939 26.321 41.1939 27.4545C41.1939 28.5881 41.3835 29.5447 41.7628 30.3246C42.142 31.1044 42.6555 31.6946 43.3033 32.0952C43.951 32.4957 44.6797 32.696 45.4893 32.696C46.2393 32.696 46.8999 32.5362 47.4709 32.2166C48.0462 31.8928 48.4936 31.4368 48.8132 30.8487C49.1371 30.2564 49.299 29.5597 49.299 28.7585L49.7848 28.8608H45.8473V27.4545H50.8331V28.8608C50.8331 29.9389 50.603 30.8764 50.1428 31.6733C49.6868 32.4702 49.0561 33.0881 48.2507 33.527C47.4496 33.9616 46.5291 34.179 45.4893 34.179C44.3303 34.179 43.3118 33.9062 42.4339 33.3608C41.5604 32.8153 40.8786 32.0398 40.3885 31.0341C39.9027 30.0284 39.6598 28.8352 39.6598 27.4545C39.6598 26.419 39.7983 25.4879 40.0753 24.6612C40.3565 23.8303 40.7528 23.1229 41.2642 22.5391C41.7756 21.9553 42.3807 21.5078 43.0795 21.1967C43.7784 20.8857 44.5476 20.7301 45.3871 20.7301C46.0774 20.7301 46.7209 20.8345 47.3175 21.0433C47.9183 21.2479 48.4531 21.5398 48.9219 21.919C49.3949 22.294 49.7891 22.7436 50.1044 23.2678C50.4197 23.7876 50.6371 24.3651 50.7564 25H49.12Z" fill="black"/>
</svg>
