<svg width="79" height="55" viewBox="0 0 79 55" fill="none" xmlns="http://www.w3.org/2000/svg">
<path d="M32.782 34.179C32.032 34.179 31.3565 34.0298 30.7557 33.7315C30.1548 33.4332 29.6733 33.0241 29.3111 32.5043C28.9489 31.9844 28.7507 31.392 28.7166 30.7273H30.2507C30.3104 31.3196 30.5788 31.8097 31.0561 32.1974C31.5376 32.581 32.1129 32.7727 32.782 32.7727C33.3189 32.7727 33.7962 32.647 34.2138 32.3956C34.6357 32.1442 34.9659 31.799 35.2045 31.3601C35.4474 30.9169 35.5689 30.4162 35.5689 29.858C35.5689 29.2869 35.4432 28.7777 35.1918 28.3303C34.9446 27.8786 34.6037 27.5227 34.169 27.2628C33.7344 27.0028 33.2379 26.8707 32.6797 26.8665C32.2791 26.8622 31.8679 26.924 31.446 27.0518C31.0241 27.1754 30.6768 27.3352 30.4041 27.5312L28.9212 27.3523L29.7138 20.9091H36.5149V22.3153H31.0433L30.5831 26.1761H30.6598C30.9283 25.9631 31.2649 25.7862 31.6697 25.6456C32.0746 25.505 32.4964 25.4347 32.9354 25.4347C33.7365 25.4347 34.4503 25.6264 35.0767 26.0099C35.7074 26.3892 36.2017 26.9091 36.5597 27.5696C36.9219 28.2301 37.103 28.9844 37.103 29.8324C37.103 30.6676 36.9155 31.4134 36.5405 32.0696C36.1697 32.7216 35.6584 33.2372 35.0064 33.6165C34.3544 33.9915 33.6129 34.179 32.782 34.179ZM48.8212 25C48.6806 24.5696 48.4952 24.1839 48.2651 23.843C48.0392 23.4979 47.7686 23.2038 47.4533 22.9609C47.1422 22.718 46.7885 22.5327 46.3922 22.4048C45.9959 22.277 45.5613 22.2131 45.0882 22.2131C44.3127 22.2131 43.6074 22.4134 42.9725 22.8139C42.3375 23.2145 41.8326 23.8047 41.4576 24.5845C41.0826 25.3643 40.8951 26.321 40.8951 27.4545C40.8951 28.5881 41.0847 29.5447 41.464 30.3246C41.8432 31.1044 42.3567 31.6946 43.0044 32.0952C43.6522 32.4957 44.3809 32.696 45.1905 32.696C45.9405 32.696 46.601 32.5362 47.1721 32.2166C47.7473 31.8928 48.1948 31.4368 48.5144 30.8487C48.8382 30.2564 49.0002 29.5597 49.0002 28.7585L49.486 28.8608H45.5485V27.4545H50.5343V28.8608C50.5343 29.9389 50.3042 30.8764 49.8439 31.6733C49.388 32.4702 48.7573 33.0881 47.9519 33.527C47.1507 33.9616 46.2303 34.179 45.1905 34.179C44.0314 34.179 43.013 33.9062 42.1351 33.3608C41.2615 32.8153 40.5797 32.0398 40.0897 31.0341C39.6039 30.0284 39.361 28.8352 39.361 27.4545C39.361 26.419 39.4995 25.4879 39.7765 24.6612C40.0577 23.8303 40.454 23.1229 40.9654 22.5391C41.4767 21.9553 42.0819 21.5078 42.7807 21.1967C43.4796 20.8857 44.2488 20.7301 45.0882 20.7301C45.7786 20.7301 46.4221 20.8345 47.0186 21.0433C47.6195 21.2479 48.1543 21.5398 48.623 21.919C49.0961 22.294 49.4902 22.7436 49.8056 23.2678C50.1209 23.7876 50.3382 24.3651 50.4576 25H48.8212Z" fill="black"/>
<path d="M25.7045 11.2252C25.7045 11.5909 25.6024 11.9567 25.3778 12.2767C19.0282 21.4894 19.0282 33.3996 25.3778 42.6123C25.8882 43.3667 25.7657 44.4412 25.1124 45.0127C24.4386 45.5842 23.4791 45.447 22.9687 44.7155C15.7207 34.2226 15.7207 20.6665 22.9687 10.1965C23.4791 9.44207 24.4386 9.3049 25.1124 9.89927C25.5003 10.1965 25.7045 10.6994 25.7045 11.2252Z" fill="black"/>
<path d="M18.5995 4.57225C18.5995 4.93801 18.4974 5.30379 18.2729 5.62384C9.1262 18.8828 9.1262 36.0051 18.2729 49.2412C18.7833 49.9956 18.6608 51.07 18.0074 51.6416C17.3337 52.2131 16.3741 52.0759 15.8637 51.3444C5.83907 36.8281 5.83907 18.0598 15.8637 3.52066C16.3741 2.76627 17.3337 2.62913 18.0074 3.2235C18.3954 3.54354 18.5995 4.06932 18.5995 4.57225Z" fill="black"/>
<path d="M53.2955 43.6401C53.2955 43.2743 53.3976 42.9086 53.6222 42.5885C59.9718 33.3758 59.9718 21.4656 53.6222 12.2529C53.1118 11.4985 53.2343 10.4241 53.8876 9.85257C54.5614 9.28107 55.5209 9.41824 56.0313 10.1498C63.2793 20.6426 63.2793 34.1988 56.0313 44.6688C55.5209 45.4232 54.5614 45.5603 53.8876 44.966C53.4997 44.6688 53.2955 44.1659 53.2955 43.6401Z" fill="black"/>
<path d="M60.4005 50.293C60.4005 49.9272 60.5026 49.5614 60.7271 49.2414C69.8738 35.9824 69.8738 18.8601 60.7271 5.62402C60.2167 4.86963 60.3392 3.79519 60.9926 3.22368C61.6663 2.65217 62.6259 2.78931 63.1363 3.52084C73.1609 18.0371 73.1609 36.8054 63.1363 51.3446C62.6259 52.099 61.6663 52.2361 60.9926 51.6417C60.6046 51.3217 60.4005 50.7959 60.4005 50.293Z" fill="black"/>
</svg>
