<svg width="60" height="60" viewBox="0 0 60 60" fill="none" xmlns="http://www.w3.org/2000/svg">
<rect x="1" y="1" width="58" height="58" rx="9" stroke="black" stroke-width="2"/>
<path d="M16.4337 37H14.7718L19.5786 23.9091H21.2149L26.0218 37H24.3598L20.4479 25.9801H20.3456L16.4337 37ZM17.0473 31.8864H23.7462V33.2926H17.0473V31.8864ZM31.8177 23.9091V37H30.2325V25.571H30.1558L26.9598 27.6932V26.0824L30.2325 23.9091H31.8177ZM40.0059 37.179C39.1622 37.179 38.4101 37.0341 37.7496 36.7443C37.0933 36.4545 36.5713 36.0518 36.1835 35.5362C35.8 35.0163 35.5912 34.4134 35.5571 33.7273H37.1679C37.202 34.1491 37.3469 34.5135 37.6025 34.8203C37.8582 35.1229 38.1927 35.3572 38.6061 35.5234C39.0194 35.6896 39.4775 35.7727 39.9804 35.7727C40.5429 35.7727 41.0415 35.6747 41.4761 35.4787C41.9108 35.2827 42.2517 35.0099 42.4988 34.6605C42.746 34.3111 42.8696 33.9062 42.8696 33.446C42.8696 32.9645 42.7503 32.5405 42.5116 32.174C42.273 31.8033 41.9236 31.5135 41.4633 31.3047C41.0031 31.0959 40.4406 30.9915 39.7758 30.9915H38.7275V29.5852H39.7758C40.2957 29.5852 40.7517 29.4915 41.1437 29.304C41.54 29.1165 41.849 28.8523 42.0706 28.5114C42.2964 28.1705 42.4094 27.7699 42.4094 27.3097C42.4094 26.8665 42.3113 26.4808 42.1153 26.1527C41.9193 25.8246 41.6423 25.5689 41.2844 25.3857C40.9307 25.2024 40.5131 25.1108 40.0315 25.1108C39.5798 25.1108 39.1537 25.1939 38.7531 25.3601C38.3568 25.522 38.0329 25.7585 37.7815 26.0696C37.5301 26.3764 37.3937 26.7472 37.3724 27.1818H35.8383C35.8639 26.4957 36.0706 25.8949 36.4584 25.3793C36.8461 24.8594 37.3532 24.4545 37.9797 24.1648C38.6104 23.875 39.3028 23.7301 40.0571 23.7301C40.8667 23.7301 41.5613 23.8942 42.1409 24.2223C42.7204 24.5462 43.1657 24.9744 43.4768 25.5071C43.7879 26.0398 43.9434 26.6151 43.9434 27.233C43.9434 27.9702 43.7496 28.5987 43.3618 29.1186C42.9782 29.6385 42.4562 29.9986 41.7957 30.1989V30.3011C42.6224 30.4375 43.268 30.7891 43.7325 31.3558C44.197 31.9183 44.4292 32.6151 44.4292 33.446C44.4292 34.1577 44.2354 34.7969 43.8476 35.3636C43.464 35.9261 42.9399 36.3693 42.2751 36.6932C41.6104 37.017 40.854 37.179 40.0059 37.179Z" fill="black"/>
</svg>
