<svg width="60" height="60" viewBox="0 0 60 60" fill="none" xmlns="http://www.w3.org/2000/svg">
<rect x="1" y="1" width="58" height="58" rx="9" stroke="black" stroke-width="2"/>
<path d="M16.3897 37H14.7278L19.5346 23.9091H21.171L25.9778 37H24.3159L20.4039 25.9801H20.3017L16.3897 37ZM17.0034 31.8864H23.7022V33.2926H17.0034V31.8864ZM31.7738 23.9091V37H30.1886V25.571H30.1119L26.9158 27.6932V26.0824L30.1886 23.9091H31.7738ZM35.2319 34.3153V33.0114L40.9847 23.9091H41.9308V25.929H41.2915L36.945 32.8068V32.9091H44.6921V34.3153H35.2319ZM41.3938 37V33.919V33.3118V23.9091H42.9023V37H41.3938Z" fill="black"/>
</svg>
