<svg width="60" height="60" viewBox="0 0 60 60" fill="none" xmlns="http://www.w3.org/2000/svg">
<rect x="1" y="1" width="58" height="58" rx="9" stroke="black" stroke-width="2"/>
<path d="M16.1886 37H14.5266L19.3335 23.9091H20.9698L25.7766 37H24.1147L20.2028 25.9801H20.1005L16.1886 37ZM16.8022 31.8864H23.5011V33.2926H16.8022V31.8864ZM31.5726 23.9091V37H29.9874V25.571H29.9107L26.7147 27.6932V26.0824L29.9874 23.9091H31.5726ZM39.4284 37.179C38.6784 37.179 38.003 37.0298 37.4022 36.7315C36.8013 36.4332 36.3198 36.0241 35.9576 35.5043C35.5953 34.9844 35.3972 34.392 35.3631 33.7273H36.8972C36.9569 34.3196 37.2253 34.8097 37.7026 35.1974C38.1841 35.581 38.7594 35.7727 39.4284 35.7727C39.9654 35.7727 40.4426 35.647 40.8603 35.3956C41.2821 35.1442 41.6124 34.799 41.851 34.3601C42.0939 33.9169 42.2154 33.4162 42.2154 32.858C42.2154 32.2869 42.0897 31.7777 41.8382 31.3303C41.5911 30.8786 41.2502 30.5227 40.8155 30.2628C40.3809 30.0028 39.8844 29.8707 39.3262 29.8665C38.9256 29.8622 38.5144 29.924 38.0925 30.0518C37.6706 30.1754 37.3233 30.3352 37.0506 30.5312L35.5676 30.3523L36.3603 23.9091H43.1614V25.3153H37.6898L37.2296 29.1761H37.3063C37.5748 28.9631 37.9114 28.7862 38.3162 28.6456C38.7211 28.505 39.1429 28.4347 39.5819 28.4347C40.383 28.4347 41.0968 28.6264 41.7232 29.0099C42.3539 29.3892 42.8482 29.9091 43.2061 30.5696C43.5684 31.2301 43.7495 31.9844 43.7495 32.8324C43.7495 33.6676 43.562 34.4134 43.187 35.0696C42.8162 35.7216 42.3049 36.2372 41.6529 36.6165C41.0009 36.9915 40.2594 37.179 39.4284 37.179Z" fill="black"/>
</svg>
