<svg width="22" height="66" viewBox="0 0 22 66" fill="none" xmlns="http://www.w3.org/2000/svg">
<path d="M7 17.3657H1" stroke="black" stroke-width="2"/>
<path d="M21 53.0732L18 62L15 53.0732V3.47967C15 3.47967 16 1 18 1C20 1 21 3.47967 21 3.47967V53.0732Z" stroke="black" stroke-width="2"/>
<path d="M7 53.5207L4 61.504L1 53.5207V9.16877C1 9.16877 2 6.95117 4 6.95117C6 6.95117 7 9.16877 7 9.16877V53.5207Z" stroke="black" stroke-width="2"/>
<path d="M17.9999 61.5039L21 52.5771L15 52.5771L17.9999 61.5039Z" fill="black"/>
<path d="M3.99993 61.5039L7 52.5771L1 52.5771L3.99993 61.5039Z" fill="black"/>
</svg>
