<svg width="34" height="65" viewBox="0 0 34 65" fill="none" xmlns="http://www.w3.org/2000/svg">
<path d="M3.5 6C1 8.5 1 11.5 1 11.5V52.0949C1 52.0949 1 55 3.5 58M6.40378 27.5846C6.40378 27.5846 6.40378 47.0928 6.40378 49.5939C6.40378 53.5956 11.3163 57.0971 13.7726 57.0971C18.6851 57.0971 21.1414 57.0971 21.1414 57.0971C24.0889 57.0971 28.0227 55.254 28.5102 49.5939C28.5102 46.5926 28.5102 42.5909 28.5102 42.5909" stroke="black" stroke-width="2" stroke-linejoin="round"/>
<path d="M27.5103 37.5889C27.5103 37.5889 27.5103 18.0806 27.5103 15.5796C27.5103 11.5779 22.5977 7.076 19.159 7.076C14.2464 7.076 13.7552 7.076 13.7552 7.076C10.8077 7.076 6.3826 9.91952 5.89512 15.5796C5.89512 18.5809 5.89512 22.5825 5.89512 22.5825" stroke="black" stroke-width="2" stroke-linejoin="round"/>
<path d="M10.8076 39.0897C10.8076 39.0897 10.8076 47.4047 10.8076 48.4707C10.8076 50.5946 13.7551 52.0952 15.3629 52.0952C18.0424 52.0952 18.3104 52.0952 18.3104 52.0952C19.6502 52.0952 22.5977 50.2959 22.5977 48.4707C22.5977 47.1915 22.5977 30.0859 22.5977 30.0859" stroke="black" stroke-width="2" stroke-linejoin="round"/>
<path d="M22.1065 25.5838V16.58C22.1065 16.58 21.6153 12.0781 15.7202 12.0781" stroke="black" stroke-width="2" stroke-linejoin="round"/>
<path d="M10.8076 15.0791V34.0871" stroke="black" stroke-width="2" stroke-linejoin="round"/>
<path d="M16.7026 17.5806V25.0837" stroke="black" stroke-width="2" stroke-linejoin="round"/>
<path d="M16.7026 29.5854V47.0928" stroke="black" stroke-width="2" stroke-linejoin="round"/>
<path d="M4.89502 4.07505C17.5091 -3.51576 31.4227 4.07508 32.4052 14.5795" stroke="black" stroke-width="2" stroke-linejoin="round"/>
<path d="M4.54663 59.5C4.54663 59.5 9.54663 64 14.5466 64C19.5466 64 18.5466 64 20.5466 64C28.5466 63 32.0466 56.5 32.5466 53C32.5466 41.5 32.5466 18 32.5466 18" stroke="black" stroke-width="2" stroke-linejoin="round"/>
</svg>
