<svg width="22" height="66" viewBox="0 0 22 66" fill="none" xmlns="http://www.w3.org/2000/svg">
<path d="M15 17.3657H21" stroke="black" stroke-width="2"/>
<path d="M1 53.0732L4 62L7 53.0732V3.47967C7 3.47967 6 1 4 1C2 1 1 3.47967 1 3.47967V53.0732Z" stroke="black" stroke-width="2"/>
<path d="M15 53.5207L18 61.504L21 53.5207V9.16877C21 9.16877 20 6.95117 18 6.95117C16 6.95117 15 9.16877 15 9.16877V53.5207Z" stroke="black" stroke-width="2"/>
<path d="M4.00007 61.5039L1 52.5771L7 52.5771L4.00007 61.5039Z" fill="black"/>
<path d="M18.0001 61.5039L15 52.5771L21 52.5771L18.0001 61.5039Z" fill="black"/>
</svg>
