<svg width="53" height="53" viewBox="0 0 53 53" fill="none" xmlns="http://www.w3.org/2000/svg">
<path d="M18 33.3652C27.0312 41.2114 33.9375 33.3652 33.9375 33.3652" stroke="black" stroke-width="2"/>
<path d="M26.5 17.1826C26.5 17.1826 26.5 26.4999 26.5 27.9711C26.5 29.4422 25.9688 28.9518 23.3125 28.9518" stroke="black" stroke-width="2"/>
<path d="M1 15.7115C1 15.7115 1 8.21698 1 5.16364C1 2.1103 3.16626 1 6.10619 1C9.04611 1 16.9375 1 16.9375 1" stroke="black" stroke-width="2"/>
<path d="M15.875 17.1826V24.048" stroke="black" stroke-width="2"/>
<path d="M36.0625 17.1826V24.048" stroke="black" stroke-width="2"/>
<path d="M16.9375 51.019C16.9375 51.019 8.8184 51.019 5.51061 51.019C2.20283 51.019 1 49.0194 1 46.3056C1 43.5919 1 36.3075 1 36.3075" stroke="black" stroke-width="2"/>
<path d="M52 37.2885C52 37.2885 52 44.783 52 47.8364C52 50.8897 49.8337 52 46.8938 52C43.9539 52 36.0625 52 36.0625 52" stroke="black" stroke-width="2"/>
<path d="M36.0625 1C36.0625 1 44.1816 1 47.4894 1C50.7972 1 52 2.99963 52 5.7134C52 8.42718 52 15.7115 52 15.7115" stroke="black" stroke-width="2"/>
</svg>
