<svg width="60" height="60" viewBox="0 0 60 60" fill="none" xmlns="http://www.w3.org/2000/svg">
<path d="M30 4C19.2493 4 9.99259 10.5407 6.04297 19.875C5.93508 20.1178 5.87664 20.3796 5.87106 20.6453C5.86548 20.9109 5.91288 21.175 6.01048 21.4221C6.10808 21.6692 6.25394 21.8944 6.43953 22.0845C6.62511 22.2746 6.84672 22.4258 7.0914 22.5293C7.33608 22.6329 7.59893 22.6866 7.86461 22.6874C8.13029 22.6883 8.39348 22.6362 8.63879 22.5341C8.88411 22.4321 9.10665 22.2823 9.29342 22.0933C9.48018 21.9044 9.62743 21.6801 9.72656 21.4336C13.0649 13.5439 20.8707 8 30 8C35.3861 8 40.2966 9.92436 44.1211 13.1289C44.3224 13.2978 44.5551 13.4253 44.8057 13.5042C45.0563 13.5831 45.32 13.6119 45.5818 13.5889C45.8435 13.5659 46.0982 13.4916 46.3312 13.3701C46.5642 13.2487 46.771 13.0826 46.9398 12.8812C47.1086 12.6798 47.2361 12.4472 47.315 12.1965C47.3938 11.9459 47.4226 11.6821 47.3995 11.4204C47.3764 11.1586 47.302 10.904 47.1805 10.671C47.059 10.438 46.8928 10.2312 46.6914 10.0625C42.1759 6.27904 36.3419 4 30 4ZM30 12C27.9018 12 25.8787 12.3589 24 13.0234C23.7522 13.1111 23.5241 13.2468 23.3287 13.4226C23.1333 13.5985 22.9745 13.8111 22.8613 14.0483C22.7481 14.2856 22.6827 14.5428 22.6689 14.8053C22.6551 15.0678 22.6932 15.3304 22.7809 15.5782C22.8686 15.826 23.0043 16.0541 23.1802 16.2495C23.3561 16.4448 23.5687 16.6036 23.806 16.7168C24.0433 16.83 24.3005 16.8953 24.563 16.909C24.8255 16.9228 25.0882 16.8846 25.3359 16.7969C26.7932 16.2814 28.3582 16 30 16C37.755 16 44 22.245 44 30C44 35.9023 42.0234 49.3398 42.0234 49.3398C41.9733 49.6043 41.977 49.8761 42.0344 50.139C42.0918 50.4019 42.2017 50.6506 42.3574 50.87C42.5132 51.0895 42.7116 51.2753 42.9408 51.4163C43.1701 51.5572 43.4254 51.6505 43.6915 51.6905C43.9577 51.7305 44.2291 51.7163 44.4897 51.6489C44.7502 51.5815 44.9945 51.4622 45.2078 51.2982C45.4212 51.1341 45.5992 50.9287 45.7313 50.6942C45.8634 50.4598 45.9468 50.2011 45.9766 49.9336C45.9766 49.9336 48 36.7457 48 30C48 20.083 39.917 12 30 12ZM51.0078 16.4492C50.6612 16.4551 50.322 16.551 50.0236 16.7275C49.7252 16.904 49.4778 17.1551 49.3057 17.456C49.1336 17.757 49.0426 18.0975 49.0417 18.4442C49.0409 18.7908 49.1301 19.1318 49.3008 19.4336C51.0205 22.5705 52 26.1628 52 30C52 32.1925 51.6775 34.3009 51.0781 36.2969C50.9914 36.5512 50.9569 36.8205 50.9766 37.0885C50.9963 37.3565 51.0698 37.6178 51.1927 37.8568C51.3156 38.0958 51.4854 38.3075 51.6919 38.4794C51.8985 38.6514 52.1376 38.7799 52.3949 38.8573C52.6522 38.9348 52.9225 38.9596 53.1896 38.9303C53.4568 38.901 53.7152 38.8181 53.9496 38.6867C54.1841 38.5553 54.3896 38.378 54.5539 38.1653C54.7183 37.9527 54.8381 37.7092 54.9062 37.4492C55.6149 35.0892 56 32.5875 56 30C56 25.4812 54.8409 21.2189 52.8086 17.5117C52.6357 17.1857 52.3759 16.914 52.0581 16.7264C51.7403 16.5389 51.3768 16.443 51.0078 16.4492ZM17.2969 18.1406C17.0063 18.156 16.7227 18.2346 16.4656 18.3708C16.2086 18.5071 15.9844 18.6978 15.8086 18.9297C13.4248 21.9814 12 25.8357 12 30C12 39.4075 10.4414 45.5156 10.4414 45.5156C10.3687 45.7726 10.3482 46.0415 10.381 46.3065C10.4139 46.5716 10.4995 46.8273 10.6328 47.0587C10.7662 47.2901 10.9445 47.4925 11.1572 47.6539C11.37 47.8153 11.6129 47.9324 11.8717 47.9984C12.1305 48.0644 12.3999 48.078 12.6639 48.0382C12.928 47.9984 13.1815 47.9061 13.4093 47.7668C13.6372 47.6276 13.8348 47.444 13.9906 47.2271C14.1464 47.0102 14.2572 46.7643 14.3164 46.5039C14.3164 46.5039 16 39.8565 16 30C16 26.7443 17.1047 23.767 18.9609 21.3906C19.2027 21.0897 19.3521 20.7252 19.3913 20.3412C19.4305 19.9572 19.3578 19.5701 19.1819 19.2265C19.0059 18.8829 18.7344 18.5976 18.3999 18.4049C18.0654 18.2122 17.6823 18.1204 17.2969 18.1406ZM30 20C24.501 20 20 24.501 20 30C20 44.0365 18.0664 51.375 18.0664 51.375C17.9881 51.6326 17.9627 51.9034 17.9915 52.1711C18.0204 52.4388 18.1031 52.6979 18.2345 52.9329C18.3659 53.1679 18.5435 53.374 18.7564 53.5387C18.9694 53.7034 19.2135 53.8235 19.474 53.8916C19.7344 53.9598 20.006 53.9746 20.2724 53.9353C20.5387 53.896 20.7944 53.8033 21.0241 53.6627C21.2538 53.5222 21.4527 53.3368 21.609 53.1175C21.7653 52.8982 21.8757 52.6497 21.9336 52.3867C21.9336 52.3867 24 44.4115 24 30C24 26.663 26.663 24 30 24C33.337 24 36 26.663 36 30C36 32.3954 35.8982 34.8958 35.7422 37.3281C35.7232 37.5915 35.7565 37.8561 35.8403 38.1066C35.9241 38.3571 36.0566 38.5885 36.2303 38.7874C36.404 38.9864 36.6153 39.149 36.8522 39.2659C37.089 39.3827 37.3467 39.4515 37.6102 39.4683C37.8738 39.485 38.1381 39.4494 38.3878 39.3635C38.6376 39.2776 38.8678 39.1431 39.0653 38.9677C39.2628 38.7924 39.4236 38.5796 39.5384 38.3418C39.6533 38.104 39.7199 37.8457 39.7344 37.582C39.8944 35.0864 40 32.5086 40 30C40 24.501 35.499 20 30 20ZM5.96094 26.3516C5.46599 26.3751 4.99739 26.5815 4.64593 26.9308C4.29448 27.2801 4.08518 27.7474 4.05859 28.2422C4.01956 28.8233 4 29.41 4 30C4 32.1895 4.27399 34.3143 4.78516 36.3438C4.84603 36.6019 4.95763 36.8453 5.11345 37.0599C5.26928 37.2745 5.46622 37.4559 5.69283 37.5937C5.91943 37.7315 6.17117 37.8228 6.4334 37.8624C6.69563 37.902 6.96311 37.889 7.22028 37.8243C7.47746 37.7595 7.71919 37.6443 7.93141 37.4853C8.14364 37.3262 8.32212 37.1266 8.45647 36.8979C8.59082 36.6693 8.67837 36.4162 8.714 36.1534C8.74964 35.8906 8.73267 35.6234 8.66406 35.3672C8.23123 33.6487 8 31.8545 8 30C8 29.498 8.01782 29.0026 8.05078 28.5117C8.07386 28.2282 8.0362 27.943 7.94031 27.6752C7.84442 27.4074 7.69252 27.1631 7.49473 26.9587C7.29694 26.7542 7.05783 26.5943 6.79334 26.4896C6.52885 26.385 6.24507 26.3379 5.96094 26.3516ZM29.9688 27.9727C29.439 27.9809 28.9342 28.1991 28.5651 28.5791C28.196 28.9592 27.9927 29.4702 28 30C28 35.4384 27.7065 39.9244 27.3242 43.4609C27.2908 43.7246 27.3102 43.9923 27.3814 44.2484C27.4526 44.5045 27.5741 44.7438 27.7388 44.9524C27.9036 45.161 28.1082 45.3346 28.3408 45.4632C28.5735 45.5918 28.8294 45.6727 29.0936 45.7013C29.3579 45.7299 29.6252 45.7055 29.8799 45.6295C30.1346 45.5536 30.3716 45.4277 30.5771 45.2591C30.7826 45.0905 30.9525 44.8827 31.0767 44.6477C31.201 44.4127 31.2771 44.1554 31.3008 43.8906C31.6985 40.2112 32 35.5816 32 30C32.0037 29.7324 31.9536 29.4668 31.8528 29.2189C31.7519 28.9711 31.6024 28.7459 31.413 28.5569C31.2236 28.3679 30.9982 28.2187 30.7501 28.1184C30.502 28.018 30.2363 27.9685 29.9688 27.9727ZM36.9141 44.4688C36.4184 44.4682 35.9401 44.6517 35.572 44.9837C35.204 45.3157 34.9723 45.7725 34.9219 46.2656C34.4585 50.2699 34.0234 52.9805 34.0234 52.9805C33.9818 53.2401 33.9917 53.5053 34.0526 53.7611C34.1135 54.0168 34.2242 54.2581 34.3784 54.4711C34.5326 54.684 34.7272 54.8646 34.9511 55.0023C35.175 55.1401 35.4239 55.2324 35.6835 55.2739C35.9431 55.3155 36.2084 55.3055 36.4641 55.2445C36.7199 55.1836 36.9611 55.0728 37.174 54.9186C37.387 54.7644 37.5674 54.5697 37.7051 54.3458C37.8428 54.1218 37.9351 53.8729 37.9766 53.6133C37.9766 53.6133 38.4258 50.8103 38.8984 46.7266C38.9351 46.4444 38.9111 46.1577 38.8281 45.8856C38.7452 45.6135 38.6051 45.3622 38.4173 45.1485C38.2295 44.9348 37.9982 44.7636 37.739 44.6464C37.4798 44.5292 37.1986 44.4686 36.9141 44.4688ZM28.0508 49.7578C27.5899 49.7574 27.143 49.9162 26.7857 50.2073C26.4284 50.4984 26.1826 50.904 26.0898 51.3555C25.7848 52.7503 25.5898 53.3633 25.5898 53.3633C25.5103 53.6141 25.481 53.8781 25.5036 54.1403C25.5263 54.4025 25.6004 54.6576 25.7218 54.891C25.8432 55.1245 26.0095 55.3317 26.2111 55.5008C26.4127 55.6698 26.6458 55.7975 26.8968 55.8764C27.1478 55.9552 27.4119 55.9838 27.674 55.9604C27.9361 55.9371 28.191 55.8622 28.4242 55.7402C28.6573 55.6181 28.864 55.4513 29.0325 55.2492C29.2011 55.0471 29.3281 54.8137 29.4062 54.5625C29.4062 54.5625 29.6652 53.7241 29.9961 52.2109C30.0642 51.9178 30.0654 51.6131 29.9994 51.3195C29.9334 51.0259 29.8021 50.751 29.6151 50.5152C29.4281 50.2794 29.1903 50.0889 28.9195 49.9577C28.6486 49.8266 28.3517 49.7583 28.0508 49.7578Z" fill="black"/>
</svg>
