<svg width="77" height="64" viewBox="0 0 77 64" fill="none" xmlns="http://www.w3.org/2000/svg">
<path d="M69.8062 13.896H6.80615C6.80615 13.896 6.80632 51.096 6.80615 57.048C6.80599 63 13.3062 63 13.3062 63H65.3062C65.3062 63 69.8062 62.504 69.8062 57.048V13.896Z" stroke="black" stroke-width="2"/>
<rect x="14.3062" y="25.3042" width="4" height="3.968" fill="black"/>
<rect x="14.3062" y="33.2402" width="4" height="3.968" fill="black"/>
<rect x="14.3062" y="42.168" width="4" height="3.968" fill="black"/>
<rect x="23.3062" y="25.3042" width="4" height="3.968" fill="black"/>
<rect x="23.3062" y="33.2402" width="4" height="3.968" fill="black"/>
<rect x="23.3062" y="42.168" width="29" height="3.968" fill="black"/>
<rect x="29.3062" y="51.0962" width="17" height="7.936" fill="black"/>
<rect x="31.3062" y="25.3042" width="4" height="3.968" fill="black"/>
<rect x="31.3062" y="33.2402" width="4" height="3.968" fill="black"/>
<rect x="40.3062" y="25.3042" width="4" height="3.968" fill="black"/>
<rect x="40.3062" y="33.2402" width="4" height="3.968" fill="black"/>
<rect x="48.3062" y="25.3042" width="4" height="3.968" fill="black"/>
<path d="M7.30615 14.392L1.30611 6.456C-0.193861 1.496 4.30611 1 4.30611 1H72.3061C72.3061 1 76.806 1.496 75.3061 6.456L69.3062 14.392" stroke="black" stroke-width="2"/>
<rect x="48.3062" y="33.2402" width="4" height="3.968" fill="black"/>
<rect x="57.3062" y="25.3042" width="4" height="3.968" fill="black"/>
<rect x="57.3062" y="33.2402" width="4" height="3.968" fill="black"/>
<rect x="57.3062" y="42.168" width="4" height="3.968" fill="black"/>
<rect x="15" y="18.856" width="5" height="0.992" fill="#454545"/>
<rect x="25" y="18.856" width="5" height="0.992" fill="#454545"/>
<rect x="35" y="18.856" width="5" height="0.992" fill="#454545"/>
<rect x="45" y="18.856" width="5" height="0.992" fill="#454545"/>
<rect x="55" y="18.856" width="5" height="0.992" fill="#454545"/>
</svg>
