<svg width="65" height="36" viewBox="0 0 65 36" fill="none" xmlns="http://www.w3.org/2000/svg">
<path d="M59.5 35C59.5 35 64 34.4925 64 28.9104V5.56716C64 5.56716 63.1938 1 59.5 1H6.69386C1.69385 1 1 5.56716 1 5.56716L1.00001 7.6442C1.00005 14.7416 1.00011 25.2671 1.00001 28.9104C0.999845 35 7.50001 35 7.50001 35H59.5Z" stroke="black" stroke-width="2"/>
<rect x="9.5" y="7.08936" width="4" height="4.0597" fill="black"/>
<rect x="9.5" y="15.209" width="4" height="4.0597" fill="black"/>
<rect x="9.5" y="24.3433" width="4" height="4.0597" fill="black"/>
<rect x="18.5" y="7.08936" width="4" height="4.0597" fill="black"/>
<rect x="18.5" y="15.209" width="4" height="4.0597" fill="black"/>
<rect x="18.5" y="24.3433" width="29" height="4.0597" fill="black"/>
<rect x="26.5" y="7.08936" width="4" height="4.0597" fill="black"/>
<rect x="26.5" y="15.209" width="4" height="4.0597" fill="black"/>
<rect x="35.5" y="7.08936" width="4" height="4.0597" fill="black"/>
<rect x="35.5" y="15.209" width="4" height="4.0597" fill="black"/>
<rect x="43.5" y="7.08936" width="4" height="4.0597" fill="black"/>
<rect x="43.5" y="15.209" width="4" height="4.0597" fill="black"/>
<rect x="52.5" y="7.08936" width="4" height="4.0597" fill="black"/>
<rect x="52.5" y="15.209" width="4" height="4.0597" fill="black"/>
<rect x="52.5" y="24.3433" width="4" height="4.0597" fill="black"/>
</svg>
