<svg width="77" height="59" viewBox="0 0 77 59" fill="none" xmlns="http://www.w3.org/2000/svg">
<path d="M69.8062 14H6.80615C6.80615 14 6.80632 46 6.80615 52C6.80599 58 13.3062 58 13.3062 58H65.3062C65.3062 58 69.8062 57.5 69.8062 52V14Z" stroke="black" stroke-width="2"/>
<rect x="15.3062" y="18.5" width="4" height="4" fill="black"/>
<rect x="15.3062" y="26.5" width="4" height="4" fill="black"/>
<rect x="15.3062" y="35.5" width="4" height="4" fill="black"/>
<rect x="24.3062" y="18.5" width="4" height="4" fill="black"/>
<rect x="24.3062" y="26.5" width="4" height="4" fill="black"/>
<rect x="24.3062" y="35.5" width="29" height="4" fill="black"/>
<rect x="30.3062" y="44.5" width="17" height="8" fill="black"/>
<rect x="32.3062" y="18.5" width="4" height="4" fill="black"/>
<rect x="32.3062" y="26.5" width="4" height="4" fill="black"/>
<rect x="41.3062" y="18.5" width="4" height="4" fill="black"/>
<rect x="41.3062" y="26.5" width="4" height="4" fill="black"/>
<rect x="49.3062" y="18.5" width="4" height="4" fill="black"/>
<path d="M7.30615 14.5L1.30611 6.5C-0.193861 1.5 4.30611 1 4.30611 1H72.3061C72.3061 1 76.806 1.5 75.3061 6.5L69.3062 14.5" stroke="black" stroke-width="2"/>
<rect x="49.3062" y="26.5" width="4" height="4" fill="black"/>
<rect x="58.3062" y="18.5" width="4" height="4" fill="black"/>
<rect x="58.3062" y="26.5" width="4" height="4" fill="black"/>
<rect x="58.3062" y="35.5" width="4" height="4" fill="black"/>
</svg>
